<?xml version="1.0" encoding="utf-8"?>
<!-- Generator: Adobe Illustrator 22.1.0, SVG Export Plug-In . SVG Version: 6.00 Build 0)  -->
<svg version="1.1" id="图层_1" xmlns="http://www.w3.org/2000/svg" xmlns:xlink="http://www.w3.org/1999/xlink" x="0px" y="0px"
	 viewBox="0 0 522.5 60.5" style="enable-background:new 0 0 522.5 60.5;" xml:space="preserve"
	 preserveAspectRatio="none">
<style type="text/css">
	.st0{fill:#222222DD;}
	.st1{fill:#222222BB;}
	.st2{fill:none;stroke:#AA9B93BB;stroke-miterlimit:10;}
</style>
<polygon class="st0" points="26.6,8.5 18,8.5 0,30.8 19,51.9 26.6,51.9 8.8,30.2 "/>
<polygon class="st0" points="493.2,8.5 513,30 493.9,51.3 503.1,51.3 522.5,30 502.9,8.5 "/>
<polygon class="st1" points="40.9,60.5 17.4,30.2 40.9,0 480.7,0 502,30.3 481.4,60.5 "/>
<polyline class="st2" points="52.6,11.3 36.6,30 52.6,47.3 "/>
<polyline class="st2" points="40.6,17.5 50.9,29.3 40.6,40.5 "/>
<polyline class="st2" points="468.4,11 485.4,29.9 468.4,47 "/>
<polyline class="st2" points="480.9,17.8 470.1,29 480.9,40 "/>
</svg>
