<?xml version="1.0" encoding="utf-8"?>
<!-- Generator: Adobe Illustrator 22.1.0, SVG Export Plug-In . SVG Version: 6.00 Build 0)  -->
<svg version="1.1" id="图层_1" xmlns="http://www.w3.org/2000/svg" xmlns:xlink="http://www.w3.org/1999/xlink" x="0px" y="0px"
	 viewBox="0 0 168.4 108.9" style="enable-background:new 0 0 168.4 108.9;" xml:space="preserve"
	 preserveAspectRatio="none">
<style type="text/css">
	.st0{fill:none;stroke:#444444DD;stroke-width:1px;stroke-miterlimit:10;}
	.st1{fill:#000000DD}
</style>
<polygon class="st1" points="0.6,1.2 0,1.2 0,0.6 0.6,0.6 0.6,0 2.2,0 2.2,0.5 2.6,0.5 2.6,1.1 2.2,1.1 2.2,2.1 166.1,1.9 166.1,1.2 165.6,1.2 
	165.6,0.6 166.1,0.6 166.1,0 167.6,0.1 167.6,0.6 168.1,0.7 168.1,1.1 167.6,1.2 167.8,107.2 168.4,107.2 168.4,108.3 167.8,108.3 
	167.7,108.9 166.1,108.9 166,108.3 165.5,108.3 165.5,107.5 166.1,107.4 166.1,106.8 2.3,106.8 2.3,107.5 2.9,107.5 2.9,108.2 
	2.3,108.1 2.3,108.7 0.5,108.8 0.4,108.4 -0.3,108.3 -0.2,107.4 0.6,107.4 "/>
<polygon class="st0" points="2.2,102.6 6.8,102.6 6.8,100.6 4.6,100.6 4.6,105.1 163.7,105.1 163.7,100.7 161.7,100.7 161.7,102.5 
	166.2,102.5 166.2,87.2 166.2,6.1 161.5,6.1 161.5,7.9 163.8,7.9 163.8,3.7 4.6,3.7 4.6,8.2 6.5,8.2 6.5,6.2 2.2,6.2 2.2,87.1 "/>
</svg>
