<?xml version="1.0" encoding="utf-8"?>
<!-- Generator: Adobe Illustrator 22.1.0, SVG Export Plug-In . SVG Version: 6.00 Build 0)  -->
<svg version="1.1" id="图层_1" xmlns="http://www.w3.org/2000/svg" xmlns:xlink="http://www.w3.org/1999/xlink" x="0px" y="0px"
	 viewBox="0 0 206 178.7" style="enable-background:new 0 0 206 178.7;" xml:space="preserve">
<style type="text/css">
	.st0{fill:none;stroke:#FFFFFF;stroke-width:5px;stroke-miterlimit:10;}
	.st1{fill:#FFFFFF;}
</style>
<path class="st0" d="M48.6,131.8c-0.8-2.3-1.9-5.5-1.1-9.4c0.8-3.7,2.9-6.1,5.1-8.4c2.2-2.3,7.1-7.3,15.3-9
	c2.4-0.5,10.6-2.2,18.5,2.6c1.8,1.1,8,5,9.6,12.6c1.6,7.4-2.3,13.3-3.4,14.9c-5.8,8.7-16,10-18.6,10.4c-2.2,0.3-13.4,1.7-20.5-5.5
	C50.4,136.9,49,133.1,48.6,131.8z"/>
<path class="st0" d="M20.7,129.2c-0.8-11,5.2-19.2,7.7-22.7C35.8,96.1,45.8,92.1,53.4,89c14.6-6,27.2-5.9,34.9-5.8
	c9,0.2,18.3,0.3,29.1,5.3c5.9,2.7,17,7.8,22.3,19.6c1,2.2,3.8,8.9,2.4,17.3c-1.5,8.3-6.3,13.4-10.8,18c-9.2,9.5-19.3,13.3-26,15.8
	c-3.8,1.4-14.7,5.1-29.4,5.1c-7.5,0-17.5,0.1-29.1-4.8c-6.1-2.5-16.2-6.8-22.1-17.4C23.6,140.2,21.1,135.6,20.7,129.2z M1.3,132.8
	c4.3,16.3,18.1,25.2,26.5,30.7c18.7,12.1,37,14,46.5,14.8c5.3,0.5,26.8,2,51.7-7.2c17.6-6.5,27.8-15,30.7-17.5
	c11.2-9.7,14.9-17.8,15.8-20c2.1-4.8,5.8-13.5,2.7-22.7c-1.8-5.1-5.1-8.7-6.5-10.2c-3.7-4-7.6-6.2-11.2-8.2c-3.4-1.9-6.3-3.2-8.5-4
	c0.7-2.2,1.4-5.5,1.7-9.5c0.3-5,0.6-9.8-2.3-14.5c-0.6-1-2.9-4.6-7.3-6.5c-1-0.4-3.4-1.3-15,0.5c-5.6,0.9-9.8,1.5-15.5,3.3
	c-3.9,1.2-7.1,2.6-9.5,3.7c-0.6,0.3-1.4,0.5-2,0.2c-1.2-0.7-0.6-3.4,0-8.5c0.6-4.9,0.9-7.6,0.5-11c-0.4-4-1.5-6.1-1.8-6.7
	c-0.7-1.3-2.1-4-5-5.2c-1.7-0.7-3.3-0.6-4.2-0.5c-8.1,0.8-12.2,1.1-16.5,2.7c-20.9,7.4-37.7,23-37.7,23C22.7,70.5,16.3,80.8,12,87.7
	C6.1,97.3,1.5,105,0.3,116.2C0,119.2-0.6,125.5,1.3,132.8z"/>
<path class="st1" d="M155.5,49.8c-2.8-2.6-4.7-4.2-7.7-5.2c-2.4-0.8-4.7-0.7-7.5-2.7c-1.4-1-2-1.8-2.3-2.3c-1.5-2.5-0.6-5.2-0.5-5.5
	c1.2-3.6,5.1-4.7,5.7-4.8c2.5-0.6,4.5,0.1,8,1.3c3.9,1.4,6.6,3.2,7.3,3.7c8.7,5.8,13.3,13.4,15.7,17.5c0.5,0.9,2.8,4.9,3.3,10
	c0.2,1.7,0.1,3-0.5,4.2c-1.1,2.2-3.6,3.3-5.7,3.5c-1.6,0.1-2.8-0.4-3.2-0.5c-0.9-0.4-1.9-1.1-3-2.5c-1.9-2.6-1.8-4.8-2.7-7.5
	C161.2,55,158.5,52.6,155.5,49.8z"/>
<path class="st1" d="M193.3,65.2c-2.1-5.1-2.8-16.1-3.2-18.8c-1-8.5-7.1-14.2-12.3-19.2c-3.6-3.4-12.2-11.6-20.8-11.5
	c-4.3,0-8.7-0.7-13-1c-0.3,0-1.2-0.1-2.3-0.5c-0.5-0.2-2.7-1-3.8-3.2c-1.4-2.6-0.7-5.9,1-7.8c0.8-0.9,2.1-2,5.3-2.7
	c3.8-0.8,8.1-0.7,14,1c1.2,0.3,5.9,1.8,13.3,5.8c4.2,2.3,8.4,4.6,13.2,8.7c8.2,7,12.7,14.5,14.3,17.5c3.9,7.1,6.6,15.1,6.8,20.2
	c0.1,1.9-0.2,3,0,6.7c0.2,2.9,0.4,4-0.3,5.3c-1.1,2-3.4,2.6-4.2,2.8c-0.4,0.1-3.9,1-6.3-1C194,66.6,193.5,65.6,193.3,65.2z"/>
</svg>
