<?xml version="1.0" encoding="utf-8"?>
<!-- Generator: Adobe Illustrator 22.1.0, SVG Export Plug-In . SVG Version: 6.00 Build 0)  -->
<svg version="1.1" id="图层_1" xmlns="http://www.w3.org/2000/svg" xmlns:xlink="http://www.w3.org/1999/xlink" x="0px" y="0px"
	 viewBox="0 0 399.6 324.1" style="enable-background:new 0 0 399.6 324.1;" xml:space="preserve">
<style type="text/css">
	.st0{fill:none;stroke:#FFFFFF;stroke-width:10px;stroke-miterlimit:10;}
	.st1{fill:#FFFFFF;stroke:#FFFFFF;stroke-miterlimit:10;}
</style>
<path class="st0" d="M55.1,244.6c-2-1.5-1.6-7.9,8.4-28.7c-5.3-4-12.6-9.9-20.3-18.1c-12.4-13-26.8-28.1-32.6-51.7
	c-5.6-22.9-0.4-41.9,1.6-48.8c6.2-21.4,18-34.7,24.2-41.7c20.8-23,44.8-31.6,58.1-36.2c32.7-11.3,60.1-8.5,66.2-7.8
	c9.9,1.2,36.7,5.3,64.3,23.9c13.6,9.1,36.7,24.7,45.2,53.3c1.9,6.2,2.6,11.7,2.9,15.5c-10.8-0.5-29.7,0-51,8.4
	c-8.5,3.3-27.8,11.2-44.9,30.7c-6,6.8-20.6,23.9-24.9,50.7c-3,18.4,0.2,33.5,2.6,42c-12.5,1.2-29,1.2-47.5-3.6
	c-5.8-1.5-11-3.3-15.8-5.2c-5.9,2.6-14.1,6.4-23.6,11.6C60.3,243.4,56.8,245.8,55.1,244.6z"/>
<path class="st0" d="M345.8,312.7c1.4-0.9,1.2-5.5-6.8-23.6c5.9-5,14.1-12.4,22.6-22.6c12.1-14.4,21.4-25.5,25.2-42
	c5.2-22.6-2.9-41.8-6.1-49.1c-11.6-26.4-33-39-43.3-44.9c-26.1-15-50.9-15.2-62.3-15.2c-13.5,0-46.8,0.1-76.5,23.9
	c-8.5,6.8-31.8,25.5-36.5,58.1c-4.2,29.5,9.5,52,14.2,59.4c17.2,27.3,43,37,53.6,41c32.8,12.4,61.9,6.3,71.4,4.2
	c6.5-1.5,11.8-3.2,15.5-4.5c3.4,1.1,8.7,3.1,14.5,6.5C340.3,309.2,344.1,313.8,345.8,312.7z"/>
<path class="st1" d="M97.1,97c7.4-3,11.1-4.5,13.2-7.4c2.9-3.9,3.5-9.9,1.3-14.5c-4.3-9.1-17.2-8.8-19.1-8.7c-3,0.1-11,0.3-15.8,6.8
	c-3.5,4.6-5.2,12.1-1.3,18.4c4.1,6.7,12.1,8,17.1,7.1C93.6,98.4,94.7,98,97.1,97z"/>
<path class="st1" d="M196.9,97.3c0.7-0.2,8.5-2,11.6-9.7c2.3-5.6,0.9-11.3-1.6-15.2c-4.5-6.8-12.5-7.5-15.5-7.8
	c-2.9-0.2-11.3-0.9-16.5,5.2c-0.4,0.5-4.2,5-3.6,11.3c0.9,8.6,9.2,12.8,11.3,13.9C188.6,98.1,194.3,97.7,196.9,97.3z"/>
<path class="st1" d="M241.9,190.8c3.7-0.6,7.8-1.2,10.3-4.7c2.9-4,1.8-9,1.5-10.1c-1.2-5-5.3-9.8-10.5-10.8
	c-3.2-0.6-5.7,0.5-10.1,2.4c-5,2.1-7.9,3.4-9.5,6.5c-2.3,4.6-0.4,11.1,3.7,14.6C231.6,192.4,237.3,191.5,241.9,190.8z"/>
<path class="st1" d="M316.6,191.8c3.6-0.9,12-2.9,13.6-9.3c1.6-6.7-5.6-12.6-6.2-13.1c-1.7-1.4-5.8-4.1-11.2-3.7
	c-5.9,0.4-12.9,4.5-14.2,11.6c-0.9,5,1.1,10.9,5.6,13.8C308.3,193.8,312.9,192.7,316.6,191.8z"/>
</svg>
